<?xml version="1.0" standalone="no"?>
<svg viewBox="0 0 200 200" xmlns="http://www.w3.org/2000/svg">
   <!-- <path fill="#ffffff99" d="M69.2,-22.5C78.5,6.3,67.3,41.8,42.9,59.6C18.6,77.5,-19,77.7,-42.5,60.2C-65.9,42.8,-75.3,7.6,-65.8,-21.3C-56.4,-50.2,-28.2,-72.9,0.9,-73.1C29.9,-73.4,59.8,-51.3,69.2,-22.5Z" transform="translate(100 100)" /> -->
     <path fill="#ffffff50" d="M37.3,-64.8C48.3,-58.4,56.9,-48.1,63.3,-36.7C69.7,-25.2,73.8,-12.6,73.8,0C73.8,12.6,69.6,25.2,63.9,37.8C58.2,50.4,50.9,62.9,40,67.2C29,71.5,14.5,67.5,-1,69.3C-16.6,71,-33.1,78.5,-43.8,74.1C-54.4,69.7,-59.2,53.3,-66.1,38.9C-73.1,24.6,-82.2,12.3,-82.1,0C-82.1,-12.2,-72.7,-24.4,-63.6,-34.9C-54.4,-45.4,-45.4,-54.3,-34.9,-60.9C-24.3,-67.6,-12.1,-72,0.5,-72.9C13.2,-73.8,26.4,-71.2,37.3,-64.8Z" transform="translate(100 100)" />

</svg>
