<?xml version="1.0" standalone="no"?>
<!DOCTYPE svg PUBLIC "-//W3C//DTD SVG 20010904//EN"
 "http://www.w3.org/TR/2001/REC-SVG-20010904/DTD/svg10.dtd">
<svg version="1.0" xmlns="http://www.w3.org/2000/svg"
 width="230.000000pt" height="230.000000pt" viewBox="0 0 230.000000 230.000000"
 preserveAspectRatio="xMidYMid meet">
<metadata>
Created by potrace 1.14, written by Peter Selinger 2001-2017
</metadata>
<g transform="translate(0.000000,230.000000) scale(0.100000,-0.100000)"
fill="#000000" stroke="none">
<path d="M1535 1723 c-93 -241 -175 -453 -182 -470 l-13 -33 84 0 83 0 19 53
19 52 165 0 164 0 21 -52 20 -53 84 0 c75 0 82 2 77 18 -88 233 -361 922 -366
922 -3 0 -82 -197 -175 -437z m233 -101 c29 -82 52 -152 52 -155 0 -4 -50 -7
-111 -7 -85 0 -110 3 -107 13 3 6 27 76 54 154 27 79 52 143 55 143 3 0 29
-67 57 -148z"/>
<path d="M280 1685 l0 -465 80 0 80 0 2 283 3 284 136 -281 137 -281 74 -3 75
-3 129 277 129 277 3 -276 2 -277 80 0 80 0 0 465 0 466 -81 -3 -81 -3 -166
-357 c-92 -196 -169 -354 -172 -352 -2 3 -82 164 -176 357 l-171 352 -82 3
-81 3 0 -466z"/>
<path d="M1530 1083 c-93 -32 -182 -121 -215 -214 -22 -61 -19 -167 6 -233 42
-113 161 -206 284 -221 63 -8 163 15 215 49 205 136 221 409 33 563 -86 69
-218 93 -323 56z m185 -152 c100 -46 141 -149 100 -248 -20 -48 -41 -71 -87
-94 -80 -41 -192 -13 -243 61 -107 155 60 360 230 281z"/>
<path d="M1630 826 c0 -21 -26 -38 -78 -52 -41 -11 -43 -13 -16 -13 18 -1 47
10 68 24 l36 24 36 -24 c22 -15 50 -25 68 -24 31 1 30 1 -6 8 -45 9 -88 36
-88 56 0 8 -4 15 -10 15 -5 0 -10 -6 -10 -14z"/>
<path d="M1635 740 l70 -6 -87 -2 c-49 -1 -88 -6 -88 -11 0 -15 59 -31 112
-31 43 0 108 21 108 36 0 2 -13 -2 -30 -11 -32 -17 -127 -20 -150 -5 -10 7 9
10 63 10 62 0 77 3 77 15 0 12 -14 15 -72 13 l-73 -2 70 -6z"/>
<path d="M1618 673 c12 -2 32 -2 45 0 12 2 2 4 -23 4 -25 0 -35 -2 -22 -4z"/>
<path d="M220 1020 l0 -70 95 0 95 0 0 -395 0 -395 80 0 80 0 0 395 0 395 95
0 95 0 0 70 0 70 -270 0 -270 0 0 -70z"/>
<path d="M850 1020 l0 -70 80 0 80 0 0 -275 c0 -356 0 -355 -149 -355 l-81 0
0 -81 0 -81 93 4 c139 6 220 49 270 143 21 39 22 53 25 413 l3 372 -160 0
-161 0 0 -70z"/>
<path d="M737 713 c-4 -3 -7 -19 -7 -35 0 -25 3 -28 35 -28 33 0 35 2 35 35 0
32 -3 35 -28 35 -16 0 -32 -3 -35 -7z m53 -33 c0 -15 -7 -20 -25 -20 -18 0
-25 5 -25 20 0 15 7 20 25 20 18 0 25 -5 25 -20z"/>
<path d="M660 701 c0 -8 7 -23 17 -33 15 -17 15 -19 0 -36 -10 -10 -17 -22
-17 -27 0 -4 11 4 25 20 22 23 24 29 12 39 -8 6 -19 20 -25 31 -7 13 -12 15
-12 6z"/>
<path d="M725 613 c11 -3 26 -12 33 -21 11 -14 12 -14 12 0 0 9 10 19 23 21
12 2 -3 4 -33 4 -30 1 -46 -1 -35 -4z"/>
<path d="M683 490 c0 -41 2 -58 4 -38 3 24 10 38 21 41 16 4 16 5 0 6 -11 1
-18 12 -21 34 -2 17 -4 -2 -4 -43z"/>
<path d="M731 530 c7 -14 17 -28 23 -32 8 -6 8 -10 0 -15 -6 -5 -16 -19 -23
-33 -11 -24 -11 -23 9 3 26 33 47 35 53 5 2 -13 4 4 4 37 0 33 -2 48 -4 33 -2
-16 -10 -28 -18 -28 -7 0 -23 12 -35 28 -20 25 -20 26 -9 2z"/>
<path d="M1330 235 l0 -75 305 0 305 0 0 75 0 75 -305 0 -305 0 0 -75z"/>
</g>
</svg>
