<?xml version="1.0" encoding="utf-8"?>
<!-- Generator: Adobe Illustrator 27.8.0, SVG Export Plug-In . SVG Version: 6.00 Build 0)  -->
<svg version="1.1" id="Ebene_1" xmlns="http://www.w3.org/2000/svg" xmlns:xlink="http://www.w3.org/1999/xlink" x="0px" y="0px"
	 viewBox="0 0 1920 120" style="enable-background:new 0 0 1920 120;" xml:space="preserve">
<style type="text/css">
	.st0{clip-path:url(#SVGID_00000045616418335407614590000000937349217338664866_);}
</style>
<g>
	<g>
		<defs>
			<rect id="SVGID_1_" width="1920" height="120"/>
		</defs>
		<clipPath id="SVGID_00000175299593020307941000000001497201144700838827_">
			<use xlink:href="#SVGID_1_"  style="overflow:visible;"/>
		</clipPath>
		<g style="clip-path:url(#SVGID_00000175299593020307941000000001497201144700838827_);">
			<path d="M-20,30.8c8.9-4.4,17.9-7.7,28-1.6c9.2-2.7,20.1,11.3,29.1,2.3c10.2,4,19.6-2.1,30,4.7c10.6,6.2,20.5,7.2,30.5,5.8
				c9.9-3.3,20.1,1.7,30.5,4.5c19.7-4.3,39.7-2.1,59.2,0.4c28.3-12.9,57.3-6.3,82.8-6.3c25.6-2.8,49,6.8,67.1,2.4
				c17.9-4.4,31.9,2.6,39.1,2.5c26-0.4,42.6-2.3,55.9-3.7c13.2-4.7,23.3-9.6,36.8-3.3c12.9-6.8,29.1-5.2,55.1,5.5
				c13-5.2,26.4-4.6,40.7,6c13-8.7,26.7-3.8,40.5-0.6c10.1,6.1,19-0.8,27.5-7.7c9.3,1.9,18.1-1.4,26.7-9.3c13.5-0.8,28.5-4.1,44-5.5
				c15.7-2,31.8-5.5,48.5,2.5c16.2,1.3,31.9,2.8,46.5,3.2c16.1,0.4,32.4-1.2,48.8-3.6s33.4-5.3,50.8-7.4c17.2-8,35.9,3.9,54.4-2.2
				c23-7.2,44.8,5.7,63.7,6c18.8-4.3,37.4,14.4,53.4,7c17.2,9.2,32.5-2.1,49.2,3.5c16.1-2.7,33.8,7,51.4-4.6
				c3.7,0.3,11.6-4.6,21.2-3.2c9.4,2.6,20,6.6,27.2-3.1c12.1,1.8,23.2-6.7,35.3-1.9c19.6-3.1,39.7-1.4,59.8,3.1
				c20.4,5.2,39.9,1.5,60.5,10c20.2,2.9,40.3,7.6,59.8,2.6c8.3,3.8,15.7-5.4,23.7-3.4c8.1,3.6,15.8,2,23.1-4.7
				c8,2.9,15.4-0.7,22.9-1.8c7.5-1,15.2-3,22.5-7c15.2-3.7,31.2,6,46.7-0.5c13.3,2.2,26.7,6.5,39.5,6.3c13-1.4,26.3,4.2,39.8,6.1
				c7.9,4.8,15,0.3,22.4,0.9c6.8-7.6,14.2-4.1,21.5-2.4c7.5,5.7,14.4,1.6,20.8-4.6c7.4,4.3,13.9-4.4,21-5.8
				c7.8,9.3,14.1-2.5,21.3-4.3c7.2-2.4,14.4-5.2,21.9-6c25.3-9.8,49.2-0.3,70.8-4.6c22.2,5.4,42.6,6.4,62.1,3.1
				c6.8,2.3,13.6,3,20.2,2.8l12.1,134.6l-1989.7,8.6l23.4-125C-20.4,30.9-20.2,30.8-20,30.8z"/>
		</g>
	</g>
</g>
</svg>
